<mxfile host="app.diagrams.net" modified="2023-10-17T04:24:06.208Z" agent="Mozilla/5.0 (Macintosh; Intel Mac OS X 10_15_7) AppleWebKit/537.36 (KHTML, like Gecko) Chrome/110.0.0.0 Safari/537.36" etag="w5SCDwRTpU6bhoG3_ce7" version="22.0.4" type="github">
  <diagram name="Page-1" id="gqiHQmdaPGUjhqP4zU3P">
    <mxGraphModel dx="1039" dy="670" grid="1" gridSize="10" guides="1" tooltips="1" connect="1" arrows="1" fold="1" page="1" pageScale="1" pageWidth="850" pageHeight="1100" math="0" shadow="0">
      <root>
        <mxCell id="0" />
        <mxCell id="1" parent="0" />
        <mxCell id="J0QG1b0HPamv0tEXQoU9-15" value="" style="edgeStyle=orthogonalEdgeStyle;rounded=0;orthogonalLoop=1;jettySize=auto;html=1;" edge="1" parent="1" source="J0QG1b0HPamv0tEXQoU9-2" target="J0QG1b0HPamv0tEXQoU9-3">
          <mxGeometry relative="1" as="geometry" />
        </mxCell>
        <mxCell id="J0QG1b0HPamv0tEXQoU9-16" value="" style="edgeStyle=orthogonalEdgeStyle;rounded=0;orthogonalLoop=1;jettySize=auto;html=1;" edge="1" parent="1" source="J0QG1b0HPamv0tEXQoU9-2" target="J0QG1b0HPamv0tEXQoU9-4">
          <mxGeometry relative="1" as="geometry" />
        </mxCell>
        <mxCell id="J0QG1b0HPamv0tEXQoU9-2" value="MasterChef" style="rounded=0;whiteSpace=wrap;html=1;fillColor=#dae8fc;strokeColor=#6c8ebf;strokeWidth=2;" vertex="1" parent="1">
          <mxGeometry x="259" y="260" width="120" height="60" as="geometry" />
        </mxCell>
        <mxCell id="J0QG1b0HPamv0tEXQoU9-3" value="V3LmPool" style="rounded=0;whiteSpace=wrap;html=1;fillColor=#dae8fc;strokeColor=#6c8ebf;strokeWidth=2;" vertex="1" parent="1">
          <mxGeometry x="569" y="260" width="120" height="60" as="geometry" />
        </mxCell>
        <mxCell id="J0QG1b0HPamv0tEXQoU9-4" value="Craftsman" style="rounded=0;whiteSpace=wrap;html=1;fillColor=#dae8fc;strokeColor=#6c8ebf;strokeWidth=2;" vertex="1" parent="1">
          <mxGeometry x="259" y="120" width="120" height="60" as="geometry" />
        </mxCell>
        <mxCell id="J0QG1b0HPamv0tEXQoU9-13" value="" style="edgeStyle=orthogonalEdgeStyle;rounded=0;orthogonalLoop=1;jettySize=auto;html=1;" edge="1" parent="1" source="J0QG1b0HPamv0tEXQoU9-5" target="J0QG1b0HPamv0tEXQoU9-12">
          <mxGeometry relative="1" as="geometry" />
        </mxCell>
        <mxCell id="J0QG1b0HPamv0tEXQoU9-5" value="V3-Router" style="rounded=0;whiteSpace=wrap;html=1;fillColor=#f8cecc;strokeColor=#b85450;strokeWidth=2;" vertex="1" parent="1">
          <mxGeometry x="259" y="420" width="120" height="60" as="geometry" />
        </mxCell>
        <mxCell id="J0QG1b0HPamv0tEXQoU9-7" value="User" style="shape=umlActor;verticalLabelPosition=bottom;verticalAlign=top;html=1;outlineConnect=0;" vertex="1" parent="1">
          <mxGeometry x="70" y="344" width="30" height="60" as="geometry" />
        </mxCell>
        <mxCell id="J0QG1b0HPamv0tEXQoU9-10" value="" style="endArrow=classic;html=1;rounded=0;entryX=0;entryY=0.5;entryDx=0;entryDy=0;edgeStyle=orthogonalEdgeStyle;" edge="1" parent="1" source="J0QG1b0HPamv0tEXQoU9-7" target="J0QG1b0HPamv0tEXQoU9-5">
          <mxGeometry width="50" height="50" relative="1" as="geometry">
            <mxPoint x="400" y="370" as="sourcePoint" />
            <mxPoint x="450" y="320" as="targetPoint" />
          </mxGeometry>
        </mxCell>
        <mxCell id="J0QG1b0HPamv0tEXQoU9-11" value="" style="endArrow=classic;html=1;rounded=0;entryX=0;entryY=0.5;entryDx=0;entryDy=0;edgeStyle=orthogonalEdgeStyle;" edge="1" parent="1" source="J0QG1b0HPamv0tEXQoU9-7" target="J0QG1b0HPamv0tEXQoU9-2">
          <mxGeometry width="50" height="50" relative="1" as="geometry">
            <mxPoint x="400" y="370" as="sourcePoint" />
            <mxPoint x="450" y="320" as="targetPoint" />
          </mxGeometry>
        </mxCell>
        <mxCell id="J0QG1b0HPamv0tEXQoU9-14" value="" style="edgeStyle=orthogonalEdgeStyle;rounded=0;orthogonalLoop=1;jettySize=auto;html=1;" edge="1" parent="1" source="J0QG1b0HPamv0tEXQoU9-12" target="J0QG1b0HPamv0tEXQoU9-3">
          <mxGeometry relative="1" as="geometry" />
        </mxCell>
        <mxCell id="J0QG1b0HPamv0tEXQoU9-12" value="V3-Pool" style="whiteSpace=wrap;html=1;fillColor=#f8cecc;strokeColor=#b85450;rounded=0;strokeWidth=2;" vertex="1" parent="1">
          <mxGeometry x="569" y="420" width="120" height="60" as="geometry" />
        </mxCell>
        <mxCell id="J0QG1b0HPamv0tEXQoU9-17" value="swap" style="text;html=1;strokeColor=none;fillColor=none;align=center;verticalAlign=middle;whiteSpace=wrap;rounded=0;" vertex="1" parent="1">
          <mxGeometry x="170" y="410" width="60" height="30" as="geometry" />
        </mxCell>
        <mxCell id="J0QG1b0HPamv0tEXQoU9-18" value="swap" style="text;html=1;strokeColor=none;fillColor=none;align=center;verticalAlign=middle;whiteSpace=wrap;rounded=0;" vertex="1" parent="1">
          <mxGeometry x="439" y="410" width="60" height="30" as="geometry" />
        </mxCell>
        <mxCell id="J0QG1b0HPamv0tEXQoU9-19" value="notify cross tick" style="text;html=1;strokeColor=none;fillColor=none;align=center;verticalAlign=middle;whiteSpace=wrap;rounded=0;" vertex="1" parent="1">
          <mxGeometry x="629" y="352" width="120" height="30" as="geometry" />
        </mxCell>
        <mxCell id="J0QG1b0HPamv0tEXQoU9-20" value="transfer NFT" style="text;html=1;strokeColor=none;fillColor=none;align=center;verticalAlign=middle;whiteSpace=wrap;rounded=0;" vertex="1" parent="1">
          <mxGeometry x="160" y="322" width="120" height="30" as="geometry" />
        </mxCell>
        <mxCell id="J0QG1b0HPamv0tEXQoU9-21" value="harvest VVS" style="text;html=1;strokeColor=none;fillColor=none;align=center;verticalAlign=middle;whiteSpace=wrap;rounded=0;" vertex="1" parent="1">
          <mxGeometry x="309" y="210" width="120" height="30" as="geometry" />
        </mxCell>
        <mxCell id="J0QG1b0HPamv0tEXQoU9-22" value="1" style="text;html=1;strokeColor=none;fillColor=none;align=center;verticalAlign=middle;whiteSpace=wrap;rounded=0;" vertex="1" parent="1">
          <mxGeometry x="359" y="322" width="50" height="30" as="geometry" />
        </mxCell>
        <mxCell id="J0QG1b0HPamv0tEXQoU9-23" value="N" style="text;html=1;strokeColor=none;fillColor=none;align=center;verticalAlign=middle;whiteSpace=wrap;rounded=0;" vertex="1" parent="1">
          <mxGeometry x="555" y="320" width="50" height="30" as="geometry" />
        </mxCell>
        <mxCell id="J0QG1b0HPamv0tEXQoU9-24" value="1" style="text;html=1;strokeColor=none;fillColor=none;align=center;verticalAlign=middle;whiteSpace=wrap;rounded=0;" vertex="1" parent="1">
          <mxGeometry x="359" y="480" width="50" height="30" as="geometry" />
        </mxCell>
        <mxCell id="J0QG1b0HPamv0tEXQoU9-25" value="N" style="text;html=1;strokeColor=none;fillColor=none;align=center;verticalAlign=middle;whiteSpace=wrap;rounded=0;" vertex="1" parent="1">
          <mxGeometry x="559" y="480" width="50" height="30" as="geometry" />
        </mxCell>
      </root>
    </mxGraphModel>
  </diagram>
</mxfile>
